<svg width="194" height="66" viewBox="0 0 194 66" fill="none" xmlns="http://www.w3.org/2000/svg">
<path d="M28.6533 6.42871V14.7842H11.2105V23.8106H24.2621V31.9221H11.2105V49.243H0.781322V6.42871H28.6533ZM36.3303 11.6738C34.5006 11.6738 32.9963 11.1452 31.8171 10.0881C30.6787 8.99025 30.1094 7.64849 30.1094 6.06278C30.1094 4.4364 30.6787 3.09464 31.8171 2.0375C32.9963 0.939693 34.5006 0.390791 36.3303 0.390791C38.1193 0.390791 39.5831 0.939693 40.7215 2.0375C41.9007 3.09464 42.4902 4.4364 42.4902 6.06278C42.4902 7.64849 41.9007 8.99025 40.7215 10.0881C39.5831 11.1452 38.1193 11.6738 36.3303 11.6738ZM41.5144 15.2111V49.243H31.0853V15.2111H41.5144ZM66.7591 14.8452C70.7437 14.8452 73.9152 16.1463 76.2734 18.7485C78.6723 21.31 79.8718 24.8474 79.8718 29.3606V49.243H69.5036V30.7633C69.5036 28.4864 68.914 26.7177 67.7349 25.4573C66.5558 24.1969 64.9701 23.5666 62.9778 23.5666C60.9855 23.5666 59.3998 24.1969 58.2206 25.4573C57.0415 26.7177 56.4519 28.4864 56.4519 30.7633V49.243H46.0228V15.2111H56.4519V19.7243C57.5091 18.2199 58.9322 17.0408 60.7212 16.187C62.5102 15.2925 64.5228 14.8452 66.7591 14.8452ZM81.9959 32.1661C81.9959 28.6694 82.6464 25.5996 83.9475 22.9567C85.2893 20.3139 87.0986 18.2809 89.3756 16.8578C91.6525 15.4348 94.1937 14.7232 96.9992 14.7232C99.2355 14.7232 101.268 15.1908 103.098 16.126C104.968 17.0611 106.432 18.3216 107.489 19.9073V4.11113H117.918V49.243H107.489V44.3639C106.513 45.9903 105.111 47.2914 103.281 48.2672C101.492 49.243 99.3981 49.7309 96.9992 49.7309C94.1937 49.7309 91.6525 49.0194 89.3756 47.5963C87.0986 46.1326 85.2893 44.0793 83.9475 41.4364C82.6464 38.7529 81.9959 35.6628 81.9959 32.1661ZM107.489 32.2271C107.489 29.6249 106.757 27.5716 105.294 26.0672C103.871 24.5628 102.122 23.8106 100.049 23.8106C97.975 23.8106 96.2063 24.5628 94.7426 26.0672C93.3195 27.5309 92.608 29.5639 92.608 32.1661C92.608 34.7683 93.3195 36.8419 94.7426 38.387C96.2063 39.8914 97.975 40.6436 100.049 40.6436C102.122 40.6436 103.871 39.8914 105.294 38.387C106.757 36.8826 107.489 34.8293 107.489 32.2271ZM127.659 11.6738C125.829 11.6738 124.325 11.1452 123.146 10.0881C122.007 8.99025 121.438 7.64849 121.438 6.06278C121.438 4.4364 122.007 3.09464 123.146 2.0375C124.325 0.939693 125.829 0.390791 127.659 0.390791C129.448 0.390791 130.912 0.939693 132.05 2.0375C133.229 3.09464 133.819 4.4364 133.819 6.06278C133.819 7.64849 133.229 8.99025 132.05 10.0881C130.912 11.1452 129.448 11.6738 127.659 11.6738ZM132.843 15.2111V49.243H122.414V15.2111H132.843ZM156.319 40.3996V49.243H151.013C147.232 49.243 144.284 48.3282 142.17 46.4985C140.055 44.6282 138.998 41.5991 138.998 37.4112V23.8716H134.851V15.2111H138.998V6.91662H149.427V15.2111H156.258V23.8716H149.427V37.5331C149.427 38.5496 149.671 39.2815 150.159 39.7287C150.647 40.176 151.46 40.3996 152.599 40.3996H156.319ZM193.843 15.2111L172.497 65.4051H161.275L169.081 48.0842L155.237 15.2111H166.886L174.753 36.4963L182.56 15.2111H193.843Z" fill="#111827"/>
</svg>
